<svg width="150" height="27" viewBox="0 0 150 27" fill="none" xmlns="http://www.w3.org/2000/svg">
<g filter="url(#filter0_d_1_3)">
<path d="M9.50568 18L4.42614 0.545454H9.08807L11.7216 11.983H11.8665L14.875 0.545454H18.6761L21.6847 12.0085H21.8295L24.4716 0.545454H29.125L24.054 18H19.9886L16.8438 7.41477H16.7074L13.5625 18H9.50568ZM30.8679 18V0.545454H43.0384V3.97159H35.0866V7.55114H42.4162V10.9858H35.0866V14.5739H43.0384V18H30.8679ZM45.6804 18V0.545454H52.9588C54.2656 0.545454 55.3594 0.730113 56.2401 1.09943C57.1264 1.46875 57.7912 1.98579 58.2344 2.65057C58.6832 3.31534 58.9077 4.08523 58.9077 4.96023C58.9077 5.625 58.7685 6.21875 58.4901 6.74148C58.2116 7.25852 57.8281 7.6875 57.3395 8.02841C56.8509 8.36932 56.2855 8.60795 55.6435 8.74432V8.91477C56.348 8.94886 56.9986 9.1392 57.5952 9.4858C58.1974 9.83239 58.6804 10.3153 59.044 10.9347C59.4077 11.5483 59.5895 12.2756 59.5895 13.1165C59.5895 14.054 59.3509 14.892 58.8736 15.6307C58.3963 16.3636 57.706 16.9432 56.8026 17.3693C55.8991 17.7898 54.8026 18 53.5128 18H45.6804ZM49.8991 14.5994H52.5071C53.4219 14.5994 54.0952 14.4261 54.527 14.0795C54.9645 13.733 55.1832 13.25 55.1832 12.6307C55.1832 12.1818 55.0781 11.7955 54.8679 11.4716C54.6577 11.142 54.3594 10.8892 53.973 10.7131C53.5866 10.5312 53.1236 10.4403 52.5838 10.4403H49.8991V14.5994ZM49.8991 7.72159H52.2344C52.6946 7.72159 53.1037 7.64489 53.4616 7.49148C53.8196 7.33807 54.098 7.11648 54.2969 6.8267C54.5014 6.53693 54.6037 6.1875 54.6037 5.77841C54.6037 5.19318 54.3963 4.73295 53.9815 4.39773C53.5668 4.0625 53.0071 3.89489 52.3026 3.89489H49.8991V7.72159ZM61.6179 18V0.545454H68.8963C70.2031 0.545454 71.2969 0.730113 72.1776 1.09943C73.0639 1.46875 73.7287 1.98579 74.1719 2.65057C74.6207 3.31534 74.8452 4.08523 74.8452 4.96023C74.8452 5.625 74.706 6.21875 74.4276 6.74148C74.1491 7.25852 73.7656 7.6875 73.277 8.02841C72.7884 8.36932 72.223 8.60795 71.581 8.74432V8.91477C72.2855 8.94886 72.9361 9.1392 73.5327 9.4858C74.1349 9.83239 74.6179 10.3153 74.9815 10.9347C75.3452 11.5483 75.527 12.2756 75.527 13.1165C75.527 14.054 75.2884 14.892 74.8111 15.6307C74.3338 16.3636 73.6435 16.9432 72.7401 17.3693C71.8366 17.7898 70.7401 18 69.4503 18H61.6179ZM65.8366 14.5994H68.4446C69.3594 14.5994 70.0327 14.4261 70.4645 14.0795C70.902 13.733 71.1207 13.25 71.1207 12.6307C71.1207 12.1818 71.0156 11.7955 70.8054 11.4716C70.5952 11.142 70.2969 10.8892 69.9105 10.7131C69.5241 10.5312 69.0611 10.4403 68.5213 10.4403H65.8366V14.5994ZM65.8366 7.72159H68.1719C68.6321 7.72159 69.0412 7.64489 69.3991 7.49148C69.7571 7.33807 70.0355 7.11648 70.2344 6.8267C70.4389 6.53693 70.5412 6.1875 70.5412 5.77841C70.5412 5.19318 70.3338 4.73295 69.919 4.39773C69.5043 4.0625 68.9446 3.89489 68.2401 3.89489H65.8366V7.72159ZM94.0298 9.27273C94.0298 11.1932 93.6605 12.821 92.9219 14.1562C92.1832 15.4915 91.1832 16.5057 89.9219 17.1989C88.6662 17.892 87.2571 18.2386 85.6946 18.2386C84.1264 18.2386 82.7145 17.8892 81.4588 17.1903C80.2031 16.4915 79.206 15.4773 78.4673 14.1477C77.7344 12.8125 77.3679 11.1875 77.3679 9.27273C77.3679 7.35227 77.7344 5.72443 78.4673 4.3892C79.206 3.05398 80.2031 2.03977 81.4588 1.34659C82.7145 0.653409 84.1264 0.306818 85.6946 0.306818C87.2571 0.306818 88.6662 0.653409 89.9219 1.34659C91.1832 2.03977 92.1832 3.05398 92.9219 4.3892C93.6605 5.72443 94.0298 7.35227 94.0298 9.27273ZM89.7173 9.27273C89.7173 8.13636 89.5554 7.17614 89.2315 6.39205C88.9134 5.60795 88.4531 5.0142 87.8509 4.61079C87.2543 4.20739 86.5355 4.00568 85.6946 4.00568C84.8594 4.00568 84.1406 4.20739 83.5384 4.61079C82.9361 5.0142 82.473 5.60795 82.1491 6.39205C81.831 7.17614 81.6719 8.13636 81.6719 9.27273C81.6719 10.4091 81.831 11.3693 82.1491 12.1534C82.473 12.9375 82.9361 13.5312 83.5384 13.9347C84.1406 14.3381 84.8594 14.5398 85.6946 14.5398C86.5355 14.5398 87.2543 14.3381 87.8509 13.9347C88.4531 13.5312 88.9134 12.9375 89.2315 12.1534C89.5554 11.3693 89.7173 10.4091 89.7173 9.27273ZM112.967 9.27273C112.967 11.1932 112.598 12.821 111.859 14.1562C111.121 15.4915 110.121 16.5057 108.859 17.1989C107.604 17.892 106.195 18.2386 104.632 18.2386C103.064 18.2386 101.652 17.8892 100.396 17.1903C99.1406 16.4915 98.1435 15.4773 97.4048 14.1477C96.6719 12.8125 96.3054 11.1875 96.3054 9.27273C96.3054 7.35227 96.6719 5.72443 97.4048 4.3892C98.1435 3.05398 99.1406 2.03977 100.396 1.34659C101.652 0.653409 103.064 0.306818 104.632 0.306818C106.195 0.306818 107.604 0.653409 108.859 1.34659C110.121 2.03977 111.121 3.05398 111.859 4.3892C112.598 5.72443 112.967 7.35227 112.967 9.27273ZM108.655 9.27273C108.655 8.13636 108.493 7.17614 108.169 6.39205C107.851 5.60795 107.391 5.0142 106.788 4.61079C106.192 4.20739 105.473 4.00568 104.632 4.00568C103.797 4.00568 103.078 4.20739 102.476 4.61079C101.874 5.0142 101.411 5.60795 101.087 6.39205C100.768 7.17614 100.609 8.13636 100.609 9.27273C100.609 10.4091 100.768 11.3693 101.087 12.1534C101.411 12.9375 101.874 13.5312 102.476 13.9347C103.078 14.3381 103.797 14.5398 104.632 14.5398C105.473 14.5398 106.192 14.3381 106.788 13.9347C107.391 13.5312 107.851 12.9375 108.169 12.1534C108.493 11.3693 108.655 10.4091 108.655 9.27273ZM124.865 5.77841C124.808 5.15341 124.555 4.66761 124.107 4.32102C123.663 3.96875 123.03 3.79261 122.206 3.79261C121.661 3.79261 121.206 3.86364 120.842 4.00568C120.479 4.14773 120.206 4.34375 120.024 4.59375C119.842 4.83807 119.749 5.11932 119.743 5.4375C119.732 5.69886 119.783 5.92898 119.896 6.12784C120.016 6.3267 120.186 6.50284 120.408 6.65625C120.635 6.80398 120.908 6.93466 121.226 7.0483C121.544 7.16193 121.902 7.26136 122.3 7.34659L123.8 7.6875C124.663 7.875 125.425 8.125 126.084 8.4375C126.749 8.75 127.305 9.12216 127.754 9.55398C128.209 9.9858 128.553 10.483 128.786 11.0455C129.018 11.608 129.138 12.2386 129.143 12.9375C129.138 14.0398 128.859 14.9858 128.308 15.7756C127.757 16.5653 126.964 17.1705 125.93 17.5909C124.902 18.0114 123.661 18.2216 122.206 18.2216C120.746 18.2216 119.473 18.0028 118.388 17.5653C117.303 17.1278 116.459 16.4631 115.857 15.571C115.254 14.679 114.945 13.5511 114.928 12.1875H118.967C119.001 12.75 119.152 13.2188 119.419 13.5938C119.686 13.9688 120.053 14.2528 120.518 14.446C120.99 14.6392 121.536 14.7358 122.155 14.7358C122.723 14.7358 123.206 14.6591 123.604 14.5057C124.007 14.3523 124.317 14.1392 124.533 13.8665C124.749 13.5937 124.859 13.2812 124.865 12.929C124.859 12.5994 124.757 12.3182 124.558 12.0852C124.359 11.8466 124.053 11.642 123.638 11.4716C123.229 11.2955 122.706 11.1335 122.07 10.9858L120.246 10.5597C118.734 10.2131 117.544 9.65341 116.675 8.88068C115.805 8.10227 115.374 7.05114 115.379 5.72727C115.374 4.64773 115.663 3.7017 116.249 2.8892C116.834 2.0767 117.643 1.44318 118.678 0.988636C119.712 0.534091 120.891 0.306818 122.214 0.306818C123.567 0.306818 124.74 0.536931 125.734 0.997158C126.734 1.4517 127.51 2.09091 128.061 2.91477C128.612 3.73864 128.893 4.69318 128.905 5.77841H124.865ZM130.703 3.97159V0.545454H145.456V3.97159H140.163V18H136.004V3.97159H130.703Z" fill="white"/>
</g>
<defs>
<filter id="filter0_d_1_3" x="0.42614" y="0.306818" width="149.03" height="25.9318" filterUnits="userSpaceOnUse" color-interpolation-filters="sRGB">
<feFlood flood-opacity="0" result="BackgroundImageFix"/>
<feColorMatrix in="SourceAlpha" type="matrix" values="0 0 0 0 0 0 0 0 0 0 0 0 0 0 0 0 0 0 127 0" result="hardAlpha"/>
<feOffset dy="4"/>
<feGaussianBlur stdDeviation="2"/>
<feComposite in2="hardAlpha" operator="out"/>
<feColorMatrix type="matrix" values="0 0 0 0 0 0 0 0 0 0 0 0 0 0 0 0 0 0 0.25 0"/>
<feBlend mode="normal" in2="BackgroundImageFix" result="effect1_dropShadow_1_3"/>
<feBlend mode="normal" in="SourceGraphic" in2="effect1_dropShadow_1_3" result="shape"/>
</filter>
</defs>
</svg>
